<svg xmlns="http://www.w3.org/2000/svg" viewBox="0 0 96 96" role="img" aria-labelledby="title desc">
  <title id="title">Musikraum Harfe</title><desc id="desc">Eine stilisierte goldene Harfe auf dunkelgrünem Grund.</desc>
  <defs>
    <linearGradient id="ground" x1="12" y1="8" x2="84" y2="88" gradientUnits="userSpaceOnUse"><stop stop-color="#536864"/><stop offset=".55" stop-color="#36423f"/><stop offset="1" stop-color="#252c2b"/></linearGradient>
    <linearGradient id="gold" x1="25" y1="18" x2="72" y2="78" gradientUnits="userSpaceOnUse"><stop stop-color="#f5e4b7"/><stop offset=".45" stop-color="#d9ba70"/><stop offset="1" stop-color="#b68c43"/></linearGradient>
    <filter id="shadow" x="-20%" y="-20%" width="140%" height="150%"><feDropShadow dx="0" dy="3" stdDeviation="2.4" flood-color="#121817" flood-opacity=".35"/></filter>
  </defs>
  <rect width="96" height="96" rx="23" fill="url(#ground)"/>
  <path d="M15 73c19 10 47 11 67 1" fill="none" stroke="#fff" stroke-opacity=".06" stroke-width="1.5"/>
  <g filter="url(#shadow)"><path d="M24.5 75.5h50" fill="none" stroke="#f5e4b7" stroke-width="6" stroke-linecap="round"/><path d="M27 74c10.5-12.8 15-32.2 13-53.5 12.8 4.2 23.4 11.2 31.4 21" fill="none" stroke="url(#gold)" stroke-width="7" stroke-linecap="round" stroke-linejoin="round"/><path d="M71.4 41.5c-1.8 11.6-1.4 23 3.1 34" fill="none" stroke="#f5e4b7" stroke-width="6" stroke-linecap="round"/><path d="M26.5 74.8c5.2-4 9.6-4.2 15.4-.2" fill="none" stroke="#d9ba70" stroke-width="3" stroke-linecap="round"/></g>
  <g fill="none" stroke="#a9c3bc" stroke-linecap="round"><path d="M42 28v40" stroke-width="1.8"/><path d="M47 30.2V68" stroke-width="1.7"/><path d="M52 32.6V68" stroke-width="1.6"/><path d="M57 35.3V68" stroke-width="1.5"/><path d="M62 38.3V68" stroke-width="1.4"/><path d="M67 41.5V68" stroke-width="1.3"/></g>
  <circle cx="40" cy="20.5" r="2.2" fill="#f5e4b7"/>
</svg>
